<svg width="41" height="40" viewBox="0 0 41 40" fill="none" xmlns="http://www.w3.org/2000/svg">
<path d="M20.5 0L20.5039 19.9803L28.1537 1.5224L20.5111 19.9834L34.6421 5.85787L20.5166 19.9889L38.9776 12.3463L20.5197 19.9961L40.5 20L20.5197 20.0039L38.9776 27.6537L20.5166 20.0111L34.6421 34.1421L20.5111 20.0166L28.1537 38.4776L20.5039 20.0197L20.5 40L20.4961 20.0197L12.8463 38.4776L20.4889 20.0166L6.35787 34.1421L20.4834 20.0111L2.0224 27.6537L20.4803 20.0039L0.5 20L20.4803 19.9961L2.0224 12.3463L20.4834 19.9889L6.35787 5.85787L20.4889 19.9834L12.8463 1.5224L20.4961 19.9803L20.5 0Z" fill="#C8FEC7" stroke="#C8FEC7" stroke-width="4"/>
</svg>
