<svg width="20" height="21" viewBox="0 0 20 21" fill="none" xmlns="http://www.w3.org/2000/svg">
<path d="M17.9417 13.7748C17.8083 13.5498 17.4333 13.1998 16.5 13.3665C15.9833 13.4581 15.4583 13.4998 14.9333 13.4748C12.9917 13.3915 11.2333 12.4998 10.0083 11.1248C8.925 9.91648 8.25833 8.34148 8.25 6.64148C8.25 5.69148 8.43333 4.77481 8.80833 3.90815C9.175 3.06648 8.91667 2.62481 8.73333 2.44148C8.54167 2.24981 8.09167 1.98315 7.20833 2.34981C3.8 3.78315 1.69167 7.19981 1.94167 10.8581C2.19167 14.2998 4.60833 17.2415 7.80833 18.3498C8.575 18.6165 9.38333 18.7748 10.2167 18.8081C10.35 18.8165 10.4833 18.8248 10.6167 18.8248C13.4083 18.8248 16.025 17.5081 17.675 15.2665C18.2333 14.4915 18.0833 13.9998 17.9417 13.7748Z" fill="#292D32"/>
</svg>
