<svg width="21" height="20" viewBox="0 0 21 20" fill="none" xmlns="http://www.w3.org/2000/svg">
<path d="M18.4414 13.2748C18.3081 13.0498 17.9331 12.6998 16.9998 12.8665C16.4831 12.9581 15.9581 12.9998 15.4331 12.9748C13.4914 12.8915 11.7331 11.9998 10.5081 10.6248C9.42476 9.41648 8.75809 7.84148 8.74976 6.14148C8.74976 5.19148 8.93309 4.27481 9.30809 3.40815C9.67476 2.56648 9.41642 2.12481 9.23309 1.94148C9.04142 1.74981 8.59142 1.48315 7.70809 1.84981C4.29976 3.28315 2.19142 6.69981 2.44142 10.3581C2.69142 13.7998 5.10809 16.7415 8.30809 17.8498C9.07476 18.1165 9.88309 18.2748 10.7164 18.3081C10.8498 18.3165 10.9831 18.3248 11.1164 18.3248C13.9081 18.3248 16.5248 17.0081 18.1748 14.7665C18.7331 13.9915 18.5831 13.4998 18.4414 13.2748Z" fill="#051724"/>
</svg>
